<svg xmlns="http://www.w3.org/2000/svg" width="1920" height="1658" fill="none"><path stroke="#034940" d="M340.591 1462.91 224.501 1579l-116.09-116.09 116.09-116.09 116.09 116.09Z"/><path stroke="#034940" d="m395.86 1462.84-55.481 55.48-55.48-55.48 55.48-55.48 55.481 55.48ZM279.911 1291.48l-55.481 55.48-55.48-55.48 55.48-55.48 55.481 55.48ZM163.962 1462.84l-55.481 55.48-55.48-55.48 55.48-55.48 55.481 55.48ZM1829.73 871.911l-116.09 116.09-116.09-116.09 116.09-116.09 116.09 116.09Z"/><path stroke="#034940" d="m1885 871.839-55.48 55.48-55.48-55.48 55.48-55.481 55.48 55.481ZM1769.05 700.481l-55.48 55.48-55.48-55.48L1713.57 645l55.48 55.481ZM1653.1 871.839l-55.48 55.48-55.48-55.48 55.48-55.481 55.48 55.481Z"/></svg>